ModelForces
version=1
nRows=4
nColumns=206
inDegrees=no

This file contains the forces exerted on a model during a simulation.

A force is a generalized force, meaning that it can be either a force (N) or a torque (Nm).

Units are S.I. units (second, meters, Newtons, ...)
Angles are in degrees.

endheader
time	glut_med1_r	glut_med2_r	glut_med3_r	glut_min1_r	glut_min2_r	glut_min3_r	semimem_r	semiten_r	bifemlh_r	bifemsh_r	sar_r	add_long_r	add_brev_r	add_mag1_r	add_mag2_r	add_mag3_r	tfl_r	pect_r	grac_r	glut_max1_r	glut_max2_r	glut_max3_r	iliacus_r	psoas_r	quad_fem_r	gem_r	peri_r	rect_fem_r	vas_med_r	vas_int_r	vas_lat_r	med_gas_r	lat_gas_r	soleus_r	tib_post_r	flex_dig_r	flex_hal_r	tib_ant_r	per_brev_r	per_long_r	per_tert_r	ext_dig_r	ext_hal_r	glut_med1_l	glut_med2_l	glut_med3_l	glut_min1_l	glut_min2_l	glut_min3_l	semimem_l	semiten_l	bifemlh_l	bifemsh_l	sar_l	add_long_l	add_brev_l	add_mag1_l	add_mag2_l	add_mag3_l	tfl_l	pect_l	grac_l	glut_max1_l	glut_max2_l	glut_max3_l	iliacus_l	psoas_l	quad_fem_l	gem_l	peri_l	rect_fem_l	vas_med_l	vas_int_l	vas_lat_l	med_gas_l	lat_gas_l	soleus_l	tib_post_l	flex_dig_l	flex_hal_l	tib_ant_l	per_brev_l	per_long_l	per_tert_l	ext_dig_l	ext_hal_l	ercspn_r	ercspn_l	intobl_r	intobl_l	extobl_r	extobl_l	femur_lat_meniscii_l.femur_lat_l.force.X	femur_lat_meniscii_l.femur_lat_l.force.Y	femur_lat_meniscii_l.femur_lat_l.force.Z	femur_lat_meniscii_l.femur_lat_l.torque.X	femur_lat_meniscii_l.femur_lat_l.torque.Y	femur_lat_meniscii_l.femur_lat_l.torque.Z	femur_lat_meniscii_l.meniscus_lat_l.force.X	femur_lat_meniscii_l.meniscus_lat_l.force.Y	femur_lat_meniscii_l.meniscus_lat_l.force.Z	femur_lat_meniscii_l.meniscus_lat_l.torque.X	femur_lat_meniscii_l.meniscus_lat_l.torque.Y	femur_lat_meniscii_l.meniscus_lat_l.torque.Z	femur_med_meniscii_l.femur_med_l.force.X	femur_med_meniscii_l.femur_med_l.force.Y	femur_med_meniscii_l.femur_med_l.force.Z	femur_med_meniscii_l.femur_med_l.torque.X	femur_med_meniscii_l.femur_med_l.torque.Y	femur_med_meniscii_l.femur_med_l.torque.Z	femur_med_meniscii_l.meniscus_med_l.force.X	femur_med_meniscii_l.meniscus_med_l.force.Y	femur_med_meniscii_l.meniscus_med_l.force.Z	femur_med_meniscii_l.meniscus_med_l.torque.X	femur_med_meniscii_l.meniscus_med_l.torque.Y	femur_med_meniscii_l.meniscus_med_l.torque.Z	femur_lat_meniscii_r.femur_lat_r.force.X	femur_lat_meniscii_r.femur_lat_r.force.Y	femur_lat_meniscii_r.femur_lat_r.force.Z	femur_lat_meniscii_r.femur_lat_r.torque.X	femur_lat_meniscii_r.femur_lat_r.torque.Y	femur_lat_meniscii_r.femur_lat_r.torque.Z	femur_lat_meniscii_r.meniscus_lat_r.force.X	femur_lat_meniscii_r.meniscus_lat_r.force.Y	femur_lat_meniscii_r.meniscus_lat_r.force.Z	femur_lat_meniscii_r.meniscus_lat_r.torque.X	femur_lat_meniscii_r.meniscus_lat_r.torque.Y	femur_lat_meniscii_r.meniscus_lat_r.torque.Z	femur_med_meniscii_r.femur_med_r.force.X	femur_med_meniscii_r.femur_med_r.force.Y	femur_med_meniscii_r.femur_med_r.force.Z	femur_med_meniscii_r.femur_med_r.torque.X	femur_med_meniscii_r.femur_med_r.torque.Y	femur_med_meniscii_r.femur_med_r.torque.Z	femur_med_meniscii_r.meniscus_med_r.force.X	femur_med_meniscii_r.meniscus_med_r.force.Y	femur_med_meniscii_r.meniscus_med_r.force.Z	femur_med_meniscii_r.meniscus_med_r.torque.X	femur_med_meniscii_r.meniscus_med_r.torque.Y	femur_med_meniscii_r.meniscus_med_r.torque.Z	femur_med_tibia_l.tibia_upper_l.force.X	femur_med_tibia_l.tibia_upper_l.force.Y	femur_med_tibia_l.tibia_upper_l.force.Z	femur_med_tibia_l.tibia_upper_l.torque.X	femur_med_tibia_l.tibia_upper_l.torque.Y	femur_med_tibia_l.tibia_upper_l.torque.Z	femur_med_tibia_l.femur_med_l.force.X	femur_med_tibia_l.femur_med_l.force.Y	femur_med_tibia_l.femur_med_l.force.Z	femur_med_tibia_l.femur_med_l.torque.X	femur_med_tibia_l.femur_med_l.torque.Y	femur_med_tibia_l.femur_med_l.torque.Z	femur_lat_tibia_l.tibia_upper_l.force.X	femur_lat_tibia_l.tibia_upper_l.force.Y	femur_lat_tibia_l.tibia_upper_l.force.Z	femur_lat_tibia_l.tibia_upper_l.torque.X	femur_lat_tibia_l.tibia_upper_l.torque.Y	femur_lat_tibia_l.tibia_upper_l.torque.Z	femur_lat_tibia_l.femur_lat_l.force.X	femur_lat_tibia_l.femur_lat_l.force.Y	femur_lat_tibia_l.femur_lat_l.force.Z	femur_lat_tibia_l.femur_lat_l.torque.X	femur_lat_tibia_l.femur_lat_l.torque.Y	femur_lat_tibia_l.femur_lat_l.torque.Z	femur_med_tibia_r.tibia_upper_r.force.X	femur_med_tibia_r.tibia_upper_r.force.Y	femur_med_tibia_r.tibia_upper_r.force.Z	femur_med_tibia_r.tibia_upper_r.torque.X	femur_med_tibia_r.tibia_upper_r.torque.Y	femur_med_tibia_r.tibia_upper_r.torque.Z	femur_med_tibia_r.femur_med_r.force.X	femur_med_tibia_r.femur_med_r.force.Y	femur_med_tibia_r.femur_med_r.force.Z	femur_med_tibia_r.femur_med_r.torque.X	femur_med_tibia_r.femur_med_r.torque.Y	femur_med_tibia_r.femur_med_r.torque.Z	femur_lat_tibia_r.tibia_upper_r.force.X	femur_lat_tibia_r.tibia_upper_r.force.Y	femur_lat_tibia_r.tibia_upper_r.force.Z	femur_lat_tibia_r.tibia_upper_r.torque.X	femur_lat_tibia_r.tibia_upper_r.torque.Y	femur_lat_tibia_r.tibia_upper_r.torque.Z	femur_lat_tibia_r.femur_lat_r.force.X	femur_lat_tibia_r.femur_lat_r.force.Y	femur_lat_tibia_r.femur_lat_r.force.Z	femur_lat_tibia_r.femur_lat_r.torque.X	femur_lat_tibia_r.femur_lat_r.torque.Y	femur_lat_tibia_r.femur_lat_r.torque.Z	aACL_R	pACL_R	aPCL_R	pPCL_R	aMCL_R	mMCL_R	pMCL_R	aLCL_R	mLCL_R	pLCL_R	aPCL_L	pPCL_L	aMCL_L	aLCL_L	ground_prescribedForce_-60_fx	ground_prescribedForce_-60_fy	ground_prescribedForce_-60_fz
      0.09355484	     17.70319194	     12.57306412	     13.58427923	      5.71469660	      6.52695510	      7.47558849	      0.00000000	      9.93776135	     10.92762167	     13.86267654	      3.67076465	     12.56797844	      8.83789771	      6.45545697	      5.52438808	      9.53590331	      6.59121258	      4.83752152	      3.71885080	      8.13848977	     12.38914816	      9.36015099	     35.41782343	     27.49238276	      7.92299611	      4.95977620	     10.95443668	     65.54917008	     39.45169527	     41.32948543	     55.25497701	      2.36513583	      0.85877307	     11.37105516	      4.05864808	      9.01232755	     10.72206492	     27.71732278	     17.63134640	     38.45000667	      6.24770320	      6.78543046	      0.91560910	     17.70319194	     12.57306412	     13.58427923	      5.71469660	      6.52695510	      7.47558849	     22.51190284	      9.52125213	     19.45246203	     15.77852224	      3.25481321	     12.56797844	      8.83789771	      6.45545697	      5.52438808	      9.53590331	      7.54038823	      4.83752152	      3.38246598	      8.13848977	     12.38914816	      9.36015099	     35.41782343	     27.49238276	      7.92299611	      4.95977620	     10.95443668	     26.81949434	     14.97005001	     17.38870203	     18.68961727	     38.98859832	     18.14403898	     83.45667496	     65.08000165	      8.47892610	      8.38518368	     20.83437863	     11.29630383	     27.45014424	      4.24499600	     14.13402878	      4.43157123	     53.83603685	     53.83603685	     20.58059142	     20.58059142	     37.35435894	     37.35435894	      2.76307435	     50.99597937	     -9.56042239	      5.21997485	     -0.02578839	      1.48581788	     -2.76307435	    -50.99597937	      9.56042239	     -1.74637766	      0.02558040	     -0.48301696	     -3.31599387	     20.97615968	     -3.40468921	      0.94473225	     -0.02138609	     -1.00501789	      3.31599387	    -20.97615968	      3.40468921	      0.28075727	      0.00368718	     -0.29758878	    106.72199997	      9.71941381	      4.27976850	     -1.97139432	      2.58128168	     43.67542519	   -106.72199997	     -9.71941381	     -4.27976850	      0.34611988	     -3.08786486	     -1.99648151	    138.14870584	    -16.34426916	     -2.15733016	      0.52292603	     -2.88600747	     56.28028434	   -138.14870584	     16.34426916	      2.15733016	      0.25221268	      2.40135883	     -2.97104154	      0.00000000	      0.00000000	      0.00000000	      0.00000000	      0.00000000	      0.00000000	      0.00000000	      0.00000000	      0.00000000	      0.00000000	      0.00000000	      0.00000000	      0.00000000	      0.00000000	      0.00000000	      0.00000000	      0.00000000	      0.00000000	      0.00000000	      0.00000000	      0.00000000	      0.00000000	      0.00000000	      0.00000000	   -574.43549713	   -191.21812341	     69.97460098	     -4.35794342	     10.33455687	     -7.66850336	    574.43549713	    191.21812341	    -69.97460098	     32.28118998	    -10.99367366	    235.09486545	      0.00000000	      0.00000000	      0.00000000	      0.00000000	      0.00000000	      0.00000000	      0.00000000	      0.00000000	      0.00000000	      0.00000000	      0.00000000	      0.00000000	      6.86038607	      0.00000000	    541.91037719	    230.12568371	      8.52368821	      0.00000000	      0.00000000	      0.00000000	      0.00000000	      0.00000000	      0.00000000	      0.00000000	      0.00000001	      0.00000000	     55.00000000	    -95.26270000	      0.00000000
      0.09505984	     17.49841051	     12.43401829	     13.43256439	      5.65371175	      6.45957427	      7.38921424	      0.00000000	      9.83009784	     10.79098023	     13.64710674	      3.63522115	     12.42766987	      8.74440670	      6.38415659	      5.46222552	      9.42438136	      6.45996481	      4.78552489	      3.68207493	      8.04779933	     12.25094391	      9.25466509	     35.15674668	     27.19603958	      7.83680355	      4.91647246	     10.82490373	     65.32991090	     39.08604413	     40.93722067	     54.71943980	      2.30867504	      0.82947562	     11.21309348	      4.05414806	      8.92619758	     10.60436860	     27.54504832	     17.47880049	     38.11164462	      8.06654538	      6.59619016	      0.91847645	     17.49841051	     12.43401829	     13.43256439	      5.65371175	      6.45957427	      7.38921424	     22.24662065	      9.41147570	     19.22202221	     15.60660066	      3.22023116	     12.42766987	      8.74440670	      6.38415659	      5.46222552	      9.42438136	      7.47127174	      4.78552489	      3.34595093	      8.04779933	     12.25094391	      9.25466509	     35.15674668	     27.19603958	      7.83680355	      4.91647246	     10.82490373	     26.50168365	     14.79945420	     17.18871699	     18.47391650	     38.53411568	     17.93168459	     82.46697685	     64.62938996	      8.36717250	      8.27567619	     20.58831590	     11.16118773	     27.15709216	      4.19935016	     13.96925358	      4.37970265	     53.26037381	     53.26037381	     20.34669343	     20.34669343	     37.13761917	     37.13761917	      2.76307435	     50.99597937	     -9.56042239	      5.21997485	     -0.02578839	      1.48581788	     -2.76307435	    -50.99597937	      9.56042239	     -1.74637766	      0.02558040	     -0.48301696	     -3.31599387	     20.97615968	     -3.40468921	      0.94473225	     -0.02138609	     -1.00501789	      3.31599387	    -20.97615968	      3.40468921	      0.28075727	      0.00368718	     -0.29758878	    106.89717537	     11.28771075	      5.54782198	     -2.52904827	      2.59052531	     43.72807056	   -106.89717537	    -11.28771075	     -5.54782198	      0.41731768	     -3.12955117	     -1.94186974	    138.18341310	    -14.73557621	     -1.55288880	      0.29865204	     -2.87211836	     56.28044476	   -138.18341310	     14.73557621	      1.55288880	      0.24743952	      2.36948416	     -2.91706136	      0.00000000	      0.00000000	      0.00000000	      0.00000000	      0.00000000	      0.00000000	      0.00000000	      0.00000000	      0.00000000	      0.00000000	      0.00000000	      0.00000000	      0.00000000	      0.00000000	      0.00000000	      0.00000000	      0.00000000	      0.00000000	      0.00000000	      0.00000000	      0.00000000	      0.00000000	      0.00000000	      0.00000000	   -565.67148811	   -188.72793020	     67.91155880	     -4.25723297	     10.10603493	     -7.51021508	    565.67148811	    188.72793020	    -67.91155880	     31.37802342	    -10.79380853	    231.50236124	      0.00000000	      0.00000000	      0.00000000	      0.00000000	      0.00000000	      0.00000000	      0.00000000	      0.00000000	      0.00000000	      0.00000000	      0.00000000	      0.00000000	      6.67789967	      0.00000000	    537.84339715	    226.70510586	      8.55439224	      0.00000000	      0.00000000	      0.00000000	      0.00000000	      0.00000000	      0.00000000	      0.00000000	      0.00000001	      0.00000000	     55.00000000	    -95.26270000	      0.00000000
      0.09710213	     17.22726669	     12.24994279	     13.23172707	      5.57295949	      6.37037617	      7.27485342	      0.00000000	      9.68594809	     10.61073496	     13.36440563	      3.58490476	     12.24193064	      8.62060394	      6.28977186	      5.37994296	      9.27668158	      6.28357808	      4.71667968	      3.63197982	      7.92775967	     12.06800994	      9.11503339	     34.81131897	     26.80380197	      7.72268912	      4.85917422	     10.65298298	     65.03738165	     38.56985278	     40.38884695	     53.97890821	      2.24163894	      0.79571043	     11.01267260	      4.10797502	      8.80844123	     10.45218279	     27.31587194	     17.23960878	     37.61378668	      9.37880575	      6.37441642	      0.92516605	     17.22726669	     12.24994279	     13.23172707	      5.57295949	      6.37037617	      7.27485342	     21.89465934	      9.26613823	     18.91650659	     15.37899233	      3.17443814	     12.24193064	      8.62060394	      6.28977186	      5.37994296	      9.27668158	      7.37967757	      4.71667968	      3.29760433	      7.92775967	     12.06800994	      9.11503339	     34.81131897	     26.80380197	      7.72268912	      4.85917422	     10.65298298	     26.08042560	     14.57367842	     16.92401609	     18.18844977	     37.93029786	     17.64958899	     81.15343368	     64.03183540	      8.21934553	      8.13095701	     20.26228828	     10.98201973	     26.76902768	      4.13893948	     13.75001418	      4.31070151	     52.49812811	     52.49812811	     20.03705505	     20.03705505	     36.85091976	     36.85091976	      2.76307435	     50.99597937	     -9.56042239	      5.21997485	     -0.02578839	      1.48581788	     -2.76307435	    -50.99597937	      9.56042239	     -1.74637766	      0.02558040	     -0.48301696	     -3.31599387	     20.97615968	     -3.40468921	      0.94473225	     -0.02138609	     -1.00501789	      3.31599387	    -20.97615968	      3.40468921	      0.28075727	      0.00368718	     -0.29758878	    111.30892580	     12.39158270	      4.93100615	     -2.29875663	      2.68815768	     45.52910408	   -111.30892580	    -12.39158270	     -4.93100615	      0.43127388	     -3.23566795	     -1.99802519	    137.86411397	    -15.21563582	     -3.17134538	      0.94607900	     -2.87769035	     56.16061232	   -137.86411397	     15.21563582	      3.17134538	      0.22649269	      2.40635579	     -2.92541009	      0.00000000	      0.00000000	      0.00000000	      0.00000000	      0.00000000	      0.00000000	      0.00000000	      0.00000000	      0.00000000	      0.00000000	      0.00000000	      0.00000000	      0.00000000	      0.00000000	      0.00000000	      0.00000000	      0.00000000	      0.00000000	      0.00000000	      0.00000000	      0.00000000	      0.00000000	      0.00000000	      0.00000000	   -553.35408837	   -183.80507497	     70.13575437	     -4.22074517	      9.95566840	     -7.33538421	    553.35408837	    183.80507497	    -70.13575437	     32.19829404	    -10.56806600	    226.46654495	      0.00000000	      0.00000000	      0.00000000	      0.00000000	      0.00000000	      0.00000000	      0.00000000	      0.00000000	      0.00000000	      0.00000000	      0.00000000	      0.00000000	      7.04251816	      0.00000000	    532.28820453	    222.04801262	      8.83351634	      0.00000000	      0.00000000	      0.00000000	      0.00000000	      0.00000000	      0.00000000	      0.00000000	      0.00000001	      0.00000000	     55.00000000	    -95.26270000	      0.00000000
      0.09862089	     17.03054602	     12.11641170	     13.08604421	      5.51436716	      6.30567318	      7.19188503	      0.00000000	      9.58512703	     10.48165498	     13.17548509	      3.55473816	     12.10719868	      8.53076568	      6.22130821	      5.32026236	      9.16949649	      6.15634359	      4.66673108	      3.59850281	      7.84069625	     11.93532707	      9.01375427	     34.56088441	     26.51932815	      7.63990236	      4.81763134	     10.52796324	     64.84457090	     38.24252674	     40.03767277	     53.49389748	      2.19682194	      0.77563818	     10.88608079	      4.18907848	      8.72113686	     10.34359409	     27.13940703	     17.04848946	     37.21943955	      5.53008035	      6.23286073	      0.93169189	     17.03054602	     12.11641170	     13.08604421	      5.51436716	      6.30567318	      7.19188503	     21.63880680	      9.16070213	     18.69457014	     15.21387400	      3.14121004	     12.10719868	      8.53076568	      6.22130821	      5.32026236	      9.16949649	      7.31317278	      4.66673108	      3.26252834	      7.84069625	     11.93532707	      9.01375427	     34.56088441	     26.51932815	      7.63990236	      4.81763134	     10.52796324	     25.77447528	     14.40994756	     16.73203663	     17.98143589	     37.49077816	     17.44427605	     80.19824874	     63.59771281	      8.11218234	      8.02614326	     20.02559161	     10.85184423	     26.48744177	      4.09512982	     13.59024741	      4.26042919	     51.94506593	     51.94506593	     19.81244504	     19.81244504	     36.64311096	     36.64311096	      2.76307435	     50.99597937	     -9.56042239	      5.21997485	     -0.02578839	      1.48581788	     -2.76307435	    -50.99597937	      9.56042239	     -1.74637766	      0.02558040	     -0.48301696	     -3.31599387	     20.97615968	     -3.40468921	      0.94473225	     -0.02138609	     -1.00501789	      3.31599387	    -20.97615968	      3.40468921	      0.28075727	      0.00368718	     -0.29758878	    114.73420463	     13.56599474	      6.48884135	     -2.96466369	      2.79281299	     46.92823212	   -114.73420463	    -13.56599474	     -6.48884135	      0.49664594	     -3.39268770	     -2.03517109	    138.23015161	    -14.83923791	     -1.55002012	      0.29934401	     -2.86714875	     56.31270769	   -138.23015161	     14.83923791	      1.55002012	      0.24419672	      2.35344060	     -2.92194618	      0.00000000	      0.00000000	      0.00000000	      0.00000000	      0.00000000	      0.00000000	      0.00000000	      0.00000000	      0.00000000	      0.00000000	      0.00000000	      0.00000000	      0.00000000	      0.00000000	      0.00000000	      0.00000000	      0.00000000	      0.00000000	      0.00000000	      0.00000000	      0.00000000	      0.00000000	      0.00000000	      0.00000000	   -543.30289343	   -182.41642578	     65.29016409	     -4.06915146	      9.61558997	     -7.11227716	    543.30289343	    182.41642578	    -65.29016409	     30.16712105	    -10.31385160	    222.33195372	      0.00000000	      0.00000000	      0.00000000	      0.00000000	      0.00000000	      0.00000000	      0.00000000	      0.00000000	      0.00000000	      0.00000000	      0.00000000	      0.00000000	      6.73002817	      0.00000000	    528.40775194	    219.37014566	      9.23270905	      0.00000000	      0.00000000	      0.00000000	      0.00000000	      0.00000000	      0.00000000	      0.00000000	      0.00000001	      0.00000000	     55.00000000	    -95.26270000	      0.00000000
